HIERARCHY
ROOT root
{
	OFFSET 0.000000 0.000000 0.000000
	CHANNELS 6 Xposition Yposition Zposition Zrotation Yrotation Xrotation
	JOINT lhip
	{
		OFFSET 0.058581 -0.082280 -0.017664
		CHANNELS 3 Zrotation Yrotation Xrotation
		JOINT lknee
		{
			OFFSET 0.043451 -0.386469 0.008037
			CHANNELS 3 Zrotation Yrotation Xrotation
			JOINT lankle
			{
				OFFSET -0.014790 -0.426874 -0.037428
				CHANNELS 3 Zrotation Yrotation Xrotation
				JOINT ltoe
				{
					OFFSET 0.041054 -0.060286 0.122042
					CHANNELS 3 Zrotation Yrotation Xrotation
					End Site
					{
						OFFSET 0.000000 0.000000 0.000000
					}
				}
			}
		}
	}
	JOINT rhip
	{
		OFFSET -0.060310 -0.090513 -0.013543
		CHANNELS 3 Zrotation Yrotation Xrotation
		JOINT rknee
		{
			OFFSET -0.043257 -0.383688 -0.004843
			CHANNELS 3 Zrotation Yrotation Xrotation
			JOINT rankle
			{
				OFFSET 0.019056 -0.420046 -0.034562
				CHANNELS 3 Zrotation Yrotation Xrotation
				JOINT rtoe
				{
					OFFSET -0.034840 -0.062106 0.130323
					CHANNELS 3 Zrotation Yrotation Xrotation
					End Site
					{
						OFFSET 0.000000 0.000000 0.000000
					}
				}
			}
		}
	}
	JOINT lowerback
	{
		OFFSET 0.004439 0.124404 -0.038385
		CHANNELS 3 Zrotation Yrotation Xrotation
		JOINT upperback
		{
			OFFSET 0.004488 0.137956 0.026820
			CHANNELS 3 Zrotation Yrotation Xrotation
			JOINT chest
			{
				OFFSET -0.002265 0.056032 0.002855
				CHANNELS 3 Zrotation Yrotation Xrotation
				JOINT lowerneck
				{
					OFFSET -0.013390 0.211636 -0.033468
					CHANNELS 3 Zrotation Yrotation Xrotation
					JOINT upperneck
					{
						OFFSET 0.010113 0.088937 0.050410
						CHANNELS 3 Zrotation Yrotation Xrotation
						End Site
						{
							OFFSET 0.000000 0.000000 0.000000
						}
					}
				}
				JOINT lclavicle
				{
					OFFSET 0.071702 0.114000 -0.018898
					CHANNELS 3 Zrotation Yrotation Xrotation
					JOINT lshoulder
					{
						OFFSET 0.122921 0.045205 -0.019046
						CHANNELS 3 Zrotation Yrotation Xrotation
						JOINT lelbow
						{
							OFFSET 0.255332 -0.015649 -0.022946
							CHANNELS 3 Zrotation Yrotation Xrotation
							JOINT lwrist
							{
								OFFSET 0.265709 0.012698 -0.007375
								CHANNELS 3 Zrotation Yrotation Xrotation
								End Site
								{
									OFFSET 0.000000 0.000000 0.000000
								}
							}
						}
					}
				}
				JOINT rclavicle
				{
					OFFSET -0.082954 0.112472 -0.023707
					CHANNELS 3 Zrotation Yrotation Xrotation
					JOINT rshoulder
					{
						OFFSET -0.113228 0.046853 -0.008472
						CHANNELS 3 Zrotation Yrotation Xrotation
						JOINT relbow
						{
							OFFSET -0.260127 -0.014369 -0.031269
							CHANNELS 3 Zrotation Yrotation Xrotation
							JOINT rwrist
							{
								OFFSET -0.269108 0.006794 -0.006027
								CHANNELS 3 Zrotation Yrotation Xrotation
								End Site
								{
									OFFSET 0.000000 0.000000 0.000000
								}
							}
						}
					}
				}
			}
		}
	}
}
MOTION
Frames: 13
Frame Time: 0.033333
0.379454 0.951863 0.985319 8.534034 -0.468816 89.216519 8.261532 6.525229 3.505110 0.596835 3.791537 0.402470 -0.488153 13.907119 -8.101624 0.000000 -0.000000 0.000000 5.150789 3.320818 -9.574597 -1.525653 5.594528 18.789083 -1.028488 -6.609939 -16.263626 0.000000 -0.000000 0.000000 -0.011735 -2.809001 5.860489 2.392348 -1.691975 2.322234 -1.263984 -1.821761 1.273798 5.088472 -5.339505 -6.867459 -0.923367 -13.441681 19.348775 -36.223967 2.395460 0.678648 -50.751607 -6.645071 9.317544 8.860525 -20.509950 -0.001072 14.722690 -7.976222 0.713751 33.576189 -2.169514 3.638188 42.956184 4.350994 10.862536 -13.644452 26.240670 1.024287 -3.195519 7.112683 6.237432 
0.379147 0.948236 0.985450 7.445552 -0.771586 89.001070 8.017690 6.909768 4.082966 0.630993 3.675464 0.740548 -0.580645 14.601799 -8.137170 0.000000 -0.000000 0.000000 4.749832 3.695388 -8.726856 -0.859221 7.025801 18.225389 -0.007557 -7.656294 -16.396213 0.000000 -0.000000 0.000000 0.126476 -3.552653 6.738213 2.107109 -1.507490 1.223269 -1.059711 -2.141656 1.339901 5.166646 -6.270294 -6.793898 -1.109023 -11.864677 19.731008 -35.775055 2.831580 1.419906 -51.796264 -6.911378 9.133118 8.954333 -19.011374 0.529649 14.866035 -7.940871 1.091193 33.244571 -2.556402 3.172272 42.707689 4.176336 11.402044 -13.749942 26.595258 0.734238 -2.897176 6.621206 5.665688 
0.378718 0.944878 0.985058 5.983889 -0.922725 88.919026 7.997624 7.341413 4.296810 0.537442 4.291364 1.658811 -0.624726 15.057991 -8.549111 0.000000 -0.000000 0.000000 4.565507 4.065282 -8.462017 -0.693919 7.498432 18.368328 0.131204 -7.155656 -16.607454 0.000000 -0.000000 0.000000 0.424807 -3.848484 7.038526 2.185251 -1.631382 1.018201 -0.990061 -2.334983 1.461991 5.236835 -6.112862 -7.162989 -1.305870 -11.410907 19.947999 -35.728260 2.670951 1.435525 -52.229476 -6.597437 8.955747 8.911238 -18.146869 0.698049 14.678016 -8.050360 1.734568 32.837043 -2.414157 2.909815 42.504316 4.345374 11.241077 -13.966273 26.654631 0.357851 -2.939432 6.686444 5.515176 
0.377291 0.940247 0.984248 4.518354 -0.881445 89.650777 8.263060 7.310550 3.131093 0.247618 5.764497 3.619239 -0.857640 15.675827 -8.956290 0.000000 -0.000000 0.000000 4.572539 4.211413 -9.095691 -0.451020 7.980202 18.597953 -0.017369 -6.708739 -16.730304 0.000000 -0.000000 0.000000 0.720188 -4.035341 6.117062 2.718732 -2.107266 1.256747 -0.876465 -2.646554 1.237509 5.088431 -6.043405 -6.625015 -0.972170 -11.133229 19.657451 -35.928088 2.645747 1.810635 -52.405473 -6.274189 9.068433 8.943839 -17.837581 1.013787 14.148633 -7.755683 1.691375 32.779252 -2.454506 3.197716 41.754892 4.669859 10.874687 -14.126072 26.735947 0.360135 -3.005078 6.628136 4.988804 
0.377771 0.936280 0.984073 3.507375 -0.912130 89.307509 8.347522 7.570282 3.231912 0.292470 6.369005 5.082777 -1.046913 16.032513 -9.441813 0.000000 -0.000000 0.000000 4.444612 3.986993 -8.386251 -0.227955 8.452628 18.472287 -0.001815 -6.155184 -16.902116 0.000000 -0.000000 0.000000 1.097346 -4.042493 6.370665 2.817619 -2.350931 1.423557 -0.909241 -2.675538 1.334641 5.355282 -6.266112 -6.680697 -1.102424 -11.024575 19.871377 -35.839293 2.503867 1.821162 -52.548749 -6.254575 8.974023 8.790955 -17.960580 1.186338 13.638640 -7.669349 1.632609 32.642013 -2.342398 3.067974 41.528786 4.691979 10.631045 -14.288682 26.761669 0.052856 -2.829100 6.597521 4.999353 
0.377308 0.931195 0.983954 2.717699 -1.012922 89.255849 8.496307 7.265540 2.318794 0.155551 7.097155 7.977711 -1.190064 16.524885 -10.113417 0.000000 -0.000000 0.000000 4.321657 3.896465 -7.861946 -0.149703 8.726783 18.254401 0.074300 -5.815547 -16.905472 0.000000 -0.000000 0.000000 1.159327 -3.997349 6.328093 3.171813 -2.869450 1.497232 -0.850056 -3.089556 1.533547 5.907404 -6.297554 -6.626200 -1.380620 -10.834880 20.306714 -35.758165 2.781880 1.665970 -52.671836 -6.482206 9.028253 8.770450 -18.406238 1.311125 13.402794 -7.613025 1.284785 32.591511 -2.773147 2.708713 41.145626 5.260151 10.859744 -13.800377 26.464776 0.433922 -2.763839 6.568334 4.767254 
0.377096 0.925383 0.984347 1.928092 -1.292442 88.896654 8.481868 7.094184 1.450298 0.054055 7.486167 11.392090 -1.196884 17.005971 -10.499345 0.000000 -0.000000 0.000000 3.906352 3.594476 -6.896275 0.114946 9.265365 17.907708 0.074735 -5.352522 -16.975881 0.000000 -0.000000 0.000000 1.095257 -3.698245 6.483619 3.452183 -3.343575 1.757576 -0.817379 -3.244608 1.633161 6.009813 -6.544956 -6.260553 -1.318429 -11.204907 20.562754 -35.680786 2.341324 1.967178 -52.423535 -6.728412 9.092039 8.670446 -19.103251 1.402427 13.325240 -7.387383 0.768747 32.844718 -2.744087 2.635681 40.928045 4.928027 10.608756 -14.308961 26.526030 -0.051725 -2.854167 6.283434 4.788159 
0.375330 0.919807 0.984895 1.289166 -1.507159 88.714579 8.637041 6.857870 0.322844 -0.043988 7.710933 14.647091 -1.362561 17.301630 -10.526665 0.000000 -0.000000 0.000000 3.821125 3.697771 -6.351523 0.096869 9.521928 17.771340 -0.018361 -5.306196 -16.961145 0.000000 -0.000000 0.000000 0.653342 -3.586808 6.744593 3.736206 -3.423867 1.710843 -0.546769 -3.281064 1.794105 6.153912 -6.710182 -6.084352 -1.213110 -11.358761 20.860045 -35.382653 2.170490 2.096729 -52.308307 -7.127002 9.187357 8.800912 -19.826711 1.328215 13.013847 -7.532527 0.022113 32.877777 -2.834603 2.668796 41.081637 4.753589 10.569468 -14.522759 26.205619 -0.438732 -2.581654 6.110096 4.264752 
0.375140 0.913277 0.985838 0.303828 -2.030865 88.204897 8.362748 6.167143 -0.916923 0.036377 7.814130 19.307887 -1.141342 17.797872 -10.172060 0.000000 -0.000000 0.000000 3.213630 3.494625 -5.200886 0.197656 10.082071 17.492424 0.064512 -4.717729 -16.971379 0.000000 -0.000000 0.000000 0.346953 -2.904247 7.106641 3.889235 -3.688962 1.994622 -0.589843 -3.318714 1.726143 6.057732 -6.656733 -5.622269 -1.042004 -12.065593 21.320930 -35.076550 1.930114 2.153590 -51.982809 -7.599015 9.234384 8.710091 -20.837987 1.162145 12.854879 -7.559886 -0.553240 32.952075 -2.880155 2.514289 41.399677 4.093449 10.484326 -14.644317 25.800948 -0.852558 -2.378402 6.077499 3.686812 
0.375254 0.904584 0.986955 -1.227771 -2.565523 87.276552 8.356437 4.697347 -2.603894 -0.257204 7.830494 26.304898 -0.308762 17.865270 -9.498012 0.000000 -0.000000 0.000000 2.490005 2.985668 -3.248149 0.310372 10.531981 16.824004 -0.042636 -3.384389 -16.682505 0.000000 -0.000000 0.000000 0.157108 -1.831568 7.835383 4.081519 -3.816755 2.271785 -0.675831 -3.187663 1.715672 5.960903 -6.304279 -5.138106 -1.063133 -12.843754 22.184680 -35.318116 1.602862 1.761480 -51.110869 -7.841548 9.621726 8.570888 -22.910578 1.139919 13.447302 -7.345392 -0.183233 33.154803 -3.253795 2.775456 41.514230 3.648629 10.326111 -13.906048 24.858401 -0.415786 -3.368275 5.837102 4.031277 
0.375665 0.896566 0.988346 -2.168446 -2.915890 86.926986 8.233606 4.187365 -3.249834 -0.625149 7.229544 29.185092 0.190545 17.920938 -8.783105 0.000000 -0.000000 0.000000 2.120623 2.798554 -2.040036 0.333854 11.729608 16.249191 0.096767 -3.539709 -16.486053 0.000000 -0.000000 0.000000 0.150368 -1.417866 7.954233 4.022671 -4.003782 2.507835 -0.857986 -2.938345 1.823197 6.085667 -6.397631 -4.649944 -0.756619 -12.484605 22.125209 -34.849331 1.591114 1.928860 -51.298698 -8.341475 9.608023 9.050518 -24.058870 1.264501 13.461404 -7.130819 -0.848535 33.460430 -2.524260 2.949911 41.615399 2.237467 10.790104 -14.153816 24.918072 -0.089200 -2.767283 5.397260 3.917363 
0.377239 0.886765 0.988256 -3.900533 -3.309310 86.023552 8.122375 3.078461 -4.040130 -1.767110 5.898280 33.972006 0.770971 16.581079 -8.186793 0.000000 -0.000000 0.000000 1.284662 2.308625 0.045320 0.417094 12.732062 15.425916 0.240919 -2.162544 -16.733901 0.000000 -0.000000 0.000000 0.210392 -0.491361 8.412416 3.905323 -3.774158 3.105171 -1.028279 -2.414668 1.933809 5.948370 -6.243134 -4.346895 -0.863444 -13.096298 22.479121 -34.729727 1.653584 1.360373 -51.555879 -8.818632 9.766448 9.548042 -25.694521 0.621624 14.363628 -7.312460 -0.619342 33.172562 -2.400397 3.360555 42.296751 1.873126 10.683807 -13.459193 24.103872 0.540608 -2.854816 5.197422 4.178074 
0.379036 0.877725 0.988415 -4.902067 -3.641172 85.837931 7.842417 2.268796 -4.981663 -3.398109 3.599250 36.121729 0.586988 14.936806 -9.313990 0.000000 -0.000000 0.000000 0.569250 2.130291 0.878240 0.638157 13.556670 15.292883 0.554381 -1.597461 -16.905129 0.000000 -0.000000 0.000000 0.336218 -0.104577 8.488377 3.754308 -3.642659 3.118812 -1.285167 -2.178094 1.945769 5.799548 -6.338743 -3.540220 -0.730930 -13.151871 22.361966 -34.492694 1.863290 1.262797 -51.537981 -8.837426 10.027762 9.841576 -27.147962 1.167147 13.403532 -7.124973 -1.914881 33.171734 -2.520037 3.555012 42.917034 1.388947 10.565307 -13.499162 23.787081 1.329124 -1.258125 4.729029 4.533657 
